<svg height="26" viewBox="0 0 116 26" width="116" xmlns="http://www.w3.org/2000/svg"><path d="m103.847478 2.65852174v14.79130436h-2.113043v-14.79130436h-3.756522v-1.64347826h9.626087v1.64347826zm-8.1352171 8.69869566c-.3678261.4617391-.8295652.7904348-1.3852174.9860869-.5556522.1956522-1.2169565.2934783-1.9839131.2934783-.36 0-.7669565-.0234783-1.2208695-.0704348-.4539131-.0469565-.8295652-.1017391-1.1269566-.1643478v5.0478261h-2.1130434v-16.20000001c.5947826-.17217392 1.1934782-.29347826 1.7960869-.36391305.6026087-.07043478 1.256087-.10565217 1.9604348-.10565217.9391304 0 1.7373913.09782609 2.3947826.29347826s1.1895652.52043478 1.5965218.97434783c.4069565.45391304.7043478 1.05652174.8921739 1.80782608.1878261.75130435.2817391 1.6826087.2817391 2.79391305 0 1.14260869-.09 2.0973913-.27 2.86434782-.18.76695649-.453913 1.38130439-.8217391 1.84304349zm-1.1973913-6.82043479c-.1173913-.56347826-.3013044-1.00956522-.5517392-1.33826087-.2504347-.32869565-.5673913-.55956522-.9508695-.6926087-.3834783-.13304347-.8413044-.19956521-1.3734783-.19956521h-1.6434783v8.68695647h1.6434783c.5321739 0 .99-.0665217 1.3734783-.1995652.3834782-.1330434.7004348-.363913.9508695-.6926087.2504348-.32869562.4343479-.77478257.5517392-1.33826083.1173913-.56347827.1760869-1.26782609.1760869-2.11304348s-.0586956-1.54956522-.1760869-2.11304348zm-11.9152174 8.68695649h-4.6956522l-1.0565217 4.226087h-2.1130435l3.9913043-16.43478262h3.0521739l3.9913044 16.43478262h-2.1130435zm-2.3008696-9.86086953h-.093913l-1.9486957 8.21739133h3.9913044zm-10.1426087 1.87826086h-.1173913l-3.4043478 10.09565217h-2.1130435l-3.4043478-10.09565217h-.1173913l-.7043479 12.20869567h-2.1130434l.9391304-16.43478262h2.5826087l3.8269565 11.26956522h.0939131l3.8269565-11.26956522h2.5826087l.9391304 16.43478262h-2.1130435zm-15.7773913 10.68260867c-.4382609.6417392-.9665217 1.0956522-1.5847826 1.3617392-.6182609.2660869-1.3265217.3991304-2.1247826.3991304s-1.5065217-.1330435-2.1247826-.3991304c-.6182609-.266087-1.1465218-.72-1.5847826-1.3617392-.4382609-.6417391-.7708696-1.5065217-.9978261-2.5943478s-.3404348-2.4534783-.3404348-4.09695652c0-1.64347826.1134783-3.00913043.3404348-4.09695652s.5595652-1.95260869.9978261-2.59434783c.4382608-.64173913.9665217-1.09565217 1.5847826-1.36173913.6182609-.26608695 1.3265217-.39913043 2.1247826-.39913043s1.5065217.13304348 2.1247826.39913043c.6182609.26608696 1.1465217.72 1.5847826 1.36173913.4382609.64173914.7708696 1.50652174.9978261 2.59434783s.3404348 2.45347826.3404348 4.09695652c0 1.64347822-.1134783 3.00913042-.3404348 4.09695652s-.5595652 1.9526087-.9978261 2.5943478zm-1.0213043-10.16608693c-.1643479-.90782608-.3795653-1.62782608-.6456522-2.16-.266087-.53217391-.5791304-.9-.9391304-1.10347826s-.7278261-.30521739-1.1034783-.30521739-.7434783.10173913-1.1034783.30521739-.6730434.57130435-.9391304 1.10347826c-.266087.53217392-.4813044 1.25217392-.6456522 2.16-.1643478.90782609-.2465217 2.06608696-.2465217 3.47478261 0 1.40869562.0821739 2.56695652.2465217 3.47478262s.3795652 1.6278261.6456522 2.16.5791304.9.9391304 1.1034783c.36.2034782.7278261.3052173 1.1034783.3052173s.7434783-.1017391 1.1034783-.3052173c.36-.2034783.6730434-.5713044.9391304-1.1034783.2660869-.5321739.4813043-1.2521739.6456522-2.16.1643478-.9078261.2465217-2.066087.2465217-3.47478262 0-1.40869565-.0821739-2.56695652-.2465217-3.47478261zm-12.6665218 4.17913044h-4.9304348v7.51304349h-2.1130434v-16.43478262h2.1130434v7.27826087h4.9304348v-7.27826087h2.1130435v16.43478262h-2.1130435zm-11.1513913 7.51304349-2.9347826-7.0434783-2.9347826 7.0434783h-2.1130435l3.5217392-8.45217393-3.1695653-7.98260869h2.1130435l2.5826087 6.57391304 2.5826087-6.57391304h2.1130435l-3.1695652 7.98260869 3.5217391 8.45217393zm-17.2565217-16.43478262h7.9826087v1.64347826h-5.8695652v5.4h5.1652173v1.64347826h-5.1652173v6.1043478h5.8695652v1.6434783h-7.9826087zm-5.63478263 16.43478262h-2.11304348v-14.79130436h-3.75652174v-1.64347826h9.62608695v1.64347826h-3.75652173z" fill="#fff" fill-rule="evenodd" transform="translate(4 2)"/></svg>